<svg preserveAspectRatio="none" width="100%" height="100%" overflow="visible" style="display: block;" viewBox="0 0 36 36" fill="none" xmlns="http://www.w3.org/2000/svg">
<g id="Frame 1272632798">
<rect width="36" height="36" rx="18" fill="#FF5E3A"/>
<path id="Union" d="M22.8671 17.6967C23.2428 17.703 22.9881 18.5089 23.4501 18.5092C24.8568 18.5092 26.0466 19.6911 26.0468 20.3412C26.0468 20.6435 25.1093 21.1499 24.5243 21.2006C23.8065 21.2627 23.5633 21.3474 23.3319 21.8178C23.2047 22.0765 23.1046 22.6196 23.4501 23.0062C24.0534 23.6812 27.7712 23.0612 27.7714 23.8353C27.7714 24.6193 22.101 24.1131 19.5702 24.6195C17.7679 24.9802 17.2456 25.2432 14.9726 26.3881L14.9276 26.4105C12.6147 27.5755 9.80894 30.3159 9.42277 30.1088C8.54564 29.6375 11.3285 28.0509 11.9091 26.4105C12.3574 25.1436 12.0287 23.4786 12.412 23.0062C12.5504 22.8358 12.5779 22.7955 12.8046 22.7133C13.0315 22.631 14.5249 22.9668 15.4306 23.0062C16.8412 23.0677 17.705 22.9292 18.9814 22.3256C21.115 21.3165 22.1041 17.6842 22.8671 17.6967ZM22.622 6.22792C22.7037 5.83573 23.2276 5.74378 23.4091 6.10097C24.647 8.53727 26.2806 13.0755 22.1571 16.265C20.0911 17.863 12.1926 16.0152 12.2187 21.6644C12.2201 21.9749 11.9219 22.2148 11.6386 22.0883C7.45574 20.2156 5.40563 14.2048 15.8583 12.1644C20.5811 11.2426 21.7695 10.3214 22.622 6.22792Z" fill="white"/>
</g>
</svg>
